<svg xmlns="http://www.w3.org/2000/svg" viewBox="0 0 128 128"><rect width="128" height="128" fill="#0E0E0E"/>
<g fill="#7AF0B9"><rect x="48" y="20" width="7" height="7"/><rect x="56" y="20" width="7" height="7"/><rect x="80" y="20" width="7" height="7"/><rect x="88" y="20" width="7" height="7"/><rect x="32" y="36" width="7" height="7"/><rect x="40" y="36" width="7" height="7"/><rect x="64" y="36" width="7" height="7"/><rect x="72" y="36" width="7" height="7"/><rect x="96" y="36" width="7" height="7"/><rect x="104" y="36" width="7" height="7"/><rect x="40" y="60" width="7" height="7"/><rect x="48" y="60" width="7" height="7"/><rect x="56" y="60" width="7" height="7"/><rect x="64" y="60" width="7" height="7"/><rect x="72" y="60" width="7" height="7"/><rect x="80" y="60" width="7" height="7"/><rect x="88" y="60" width="7" height="7"/><rect x="96" y="60" width="7" height="7"/><rect x="32" y="68" width="7" height="7"/><rect x="40" y="68" width="7" height="7"/><rect x="48" y="68" width="7" height="7"/><rect x="56" y="68" width="7" height="7"/><rect x="64" y="68" width="7" height="7"/><rect x="72" y="68" width="7" height="7"/><rect x="80" y="68" width="7" height="7"/><rect x="88" y="68" width="7" height="7"/><rect x="96" y="68" width="7" height="7"/><rect x="104" y="68" width="7" height="7"/><rect x="32" y="76" width="7" height="7"/><rect x="40" y="76" width="7" height="7"/><rect x="48" y="76" width="7" height="7"/><rect x="56" y="76" width="7" height="7"/><rect x="64" y="76" width="7" height="7"/><rect x="72" y="76" width="7" height="7"/><rect x="80" y="76" width="7" height="7"/><rect x="88" y="76" width="7" height="7"/><rect x="96" y="76" width="7" height="7"/><rect x="104" y="76" width="7" height="7"/><rect x="40" y="84" width="7" height="7"/><rect x="48" y="84" width="7" height="7"/><rect x="56" y="84" width="7" height="7"/><rect x="64" y="84" width="7" height="7"/><rect x="72" y="84" width="7" height="7"/><rect x="80" y="84" width="7" height="7"/><rect x="88" y="84" width="7" height="7"/><rect x="96" y="84" width="7" height="7"/><rect x="48" y="92" width="7" height="7"/><rect x="56" y="92" width="7" height="7"/><rect x="64" y="92" width="7" height="7"/><rect x="72" y="92" width="7" height="7"/><rect x="80" y="92" width="7" height="7"/><rect x="88" y="92" width="7" height="7"/></g></svg>