<svg width="1600" height="840" viewBox="0 0 1600 840" fill="none" xmlns="http://www.w3.org/2000/svg">
  <defs>
    <linearGradient id="bg" x1="0" y1="0" x2="1600" y2="840" gradientUnits="userSpaceOnUse">
      <stop stop-color="#0B1220"/>
      <stop offset="1" stop-color="#101A2F"/>
    </linearGradient>
  </defs>
  <rect width="1600" height="840" fill="url(#bg)"/>
  <rect x="70" y="70" width="1460" height="700" rx="28" fill="#131F38" stroke="#2E436F"/>

  <text x="130" y="170" fill="#C7D8FF" font-family="Inter, Pretendard, sans-serif" font-size="46" font-weight="700">Heartbeat + Cron Operations</text>
  <text x="130" y="220" fill="#89A7E8" font-family="Inter, Pretendard, sans-serif" font-size="24">체크(문맥)와 실행(정시)을 분리한 자동화 패턴</text>

  <rect x="130" y="280" width="620" height="420" rx="20" fill="#16284B" stroke="#3E5FA8"/>
  <text x="180" y="345" fill="#9EC0FF" font-family="Inter, Pretendard, sans-serif" font-size="36" font-weight="700">Heartbeat</text>
  <circle cx="250" cy="430" r="70" fill="#1F3563"/>
  <path d="M250 390V430L285 455" stroke="#A9C5FF" stroke-width="12" stroke-linecap="round" stroke-linejoin="round"/>
  <rect x="360" y="385" width="330" height="26" rx="10" fill="#29457C"/>
  <rect x="360" y="430" width="280" height="26" rx="10" fill="#29457C"/>
  <rect x="360" y="475" width="310" height="26" rx="10" fill="#29457C"/>
  <rect x="180" y="550" width="510" height="110" rx="16" fill="#1E3768"/>
  <text x="210" y="616" fill="#D0E0FF" font-family="Inter, Pretendard, sans-serif" font-size="28">상태 점검 · 맥락 기반 판단</text>

  <rect x="850" y="280" width="620" height="420" rx="20" fill="#16284B" stroke="#3E5FA8"/>
  <text x="900" y="345" fill="#9EC0FF" font-family="Inter, Pretendard, sans-serif" font-size="36" font-weight="700">Cron</text>
  <rect x="915" y="390" width="430" height="56" rx="12" fill="#223E74"/>
  <text x="945" y="427" fill="#D3E2FF" font-family="JetBrains Mono, Menlo, monospace" font-size="30">0 9 * * 1-5</text>
  <rect x="915" y="470" width="430" height="56" rx="12" fill="#223E74"/>
  <text x="945" y="507" fill="#D3E2FF" font-family="JetBrains Mono, Menlo, monospace" font-size="30">30 8 * * *</text>
  <rect x="900" y="550" width="510" height="110" rx="16" fill="#1E3768"/>
  <text x="930" y="616" fill="#D0E0FF" font-family="Inter, Pretendard, sans-serif" font-size="28">정해진 시각에 정확히 실행</text>

  <path d="M760 490H840" stroke="#84A9FF" stroke-width="12" stroke-linecap="round"/>
  <path d="M815 465L840 490L815 515" stroke="#84A9FF" stroke-width="12" stroke-linecap="round" stroke-linejoin="round"/>
</svg>
