<svg width="1600" height="840" viewBox="0 0 1600 840" fill="none" xmlns="http://www.w3.org/2000/svg">
  <rect width="1600" height="840" fill="#0B101A"/>
  <rect x="70" y="70" width="1460" height="700" rx="28" fill="#131B2B" stroke="#2E4368"/>

  <text x="130" y="165" fill="#D2DFFF" font-family="Inter, Pretendard, sans-serif" font-size="44" font-weight="700">Global Tech Issues — Daily Brief</text>
  <text x="130" y="215" fill="#8EABE3" font-family="Inter, Pretendard, sans-serif" font-size="24">AI Agent Security · Rust 1.94 · LibreSprite</text>

  <rect x="130" y="270" width="430" height="420" rx="22" fill="#192742" stroke="#3F63AE"/>
  <text x="180" y="340" fill="#A9C4FF" font-family="Inter, Pretendard, sans-serif" font-size="34" font-weight="700">AI Agent Security</text>
  <rect x="180" y="380" width="320" height="22" rx="8" fill="#2B467A"/>
  <rect x="180" y="418" width="260" height="22" rx="8" fill="#2B467A"/>
  <rect x="180" y="456" width="300" height="22" rx="8" fill="#2B467A"/>
  <circle cx="220" cy="560" r="28" fill="#233B69"/>
  <path d="M220 545V565" stroke="#9EC3FF" stroke-width="7" stroke-linecap="round"/>
  <rect x="206" y="565" width="28" height="18" rx="5" fill="#9EC3FF"/>

  <rect x="585" y="270" width="430" height="420" rx="22" fill="#192742" stroke="#3F63AE"/>
  <text x="735" y="340" fill="#A9C4FF" font-family="Inter, Pretendard, sans-serif" font-size="34" font-weight="700">Rust 1.94</text>
  <rect x="635" y="380" width="320" height="22" rx="8" fill="#2B467A"/>
  <rect x="635" y="418" width="260" height="22" rx="8" fill="#2B467A"/>
  <rect x="635" y="456" width="300" height="22" rx="8" fill="#2B467A"/>
  <rect x="665" y="535" width="260" height="70" rx="14" fill="#233B69"/>
  <text x="700" y="579" fill="#CFE0FF" font-family="JetBrains Mono, Menlo, monospace" font-size="24">cargo test</text>

  <rect x="1040" y="270" width="430" height="420" rx="22" fill="#192742" stroke="#3F63AE"/>
  <text x="1145" y="340" fill="#A9C4FF" font-family="Inter, Pretendard, sans-serif" font-size="34" font-weight="700">LibreSprite</text>
  <rect x="1090" y="380" width="320" height="22" rx="8" fill="#2B467A"/>
  <rect x="1090" y="418" width="260" height="22" rx="8" fill="#2B467A"/>
  <rect x="1090" y="456" width="300" height="22" rx="8" fill="#2B467A"/>
  <rect x="1120" y="535" width="220" height="70" rx="14" fill="#233B69"/>
  <rect x="1152" y="552" width="28" height="28" fill="#9EC3FF"/>
  <rect x="1188" y="552" width="28" height="28" fill="#6E93E0"/>
  <rect x="1224" y="552" width="28" height="28" fill="#4B6FBF"/>
</svg>
